PathFileType	4	(X/Y/Z)	P:\Projects\LMB_grand_challenge_database\project_only\opensim\experimental_data\SixthCompetition/DM_ngait_og9_new.trc
DataRate	CameraRate	NumFrames	NumMarkers	Units	OrigDataRate	OrigDataStartFrame	OrigNumFrames
120	120	4	68	mm	120	184	369
Frame#	Time	Sternum			Neck			R_Shoulder			L_Shoulder			Xiphoid			Thoracic			R_Asis			L_Asis			R_Psis			L_Psis			Lumbar			R_Elbow			R_ElbowMedial			R_ShoulderAnterior			R_ShoulderPosterior			R_Wrist			R_Radius			R_Ulna			L_Elbow			L_ElbowMedial			L_ShoulderAnterior			L_ShoulderPosterior			L_Wrist			L_Ulna			L_Radius			L_Thigh_Superior			L_Thigh_Inferior			L_Thigh_Lateral			L_Knee_Lateral			L_Knee_Medial			L_Patella			L_Shank_Superior			L_Shank_Inferior			L_Shank_Lateral			L_Ankle_Lateral			L_Ankle_Medial			R_Thigh_Superior			R_Thigh_Inferior			R_Thigh_Lateral			R_Knee_Lateral			R_Knee_Medial			R_Patella			R_Shank_Superior			R_Shank_Inferior			R_Shank_Lateral			R_Ankle_Lateral			RankleMedial			R_Heel			R_Toe			R_Midfoot_Medial			R_Midfoot_Lateral			R_Hindfoot			R_Midfoot_Superior			R_ToeMedial			R_ToeLateral			L_Heel			L_Toe			L_Midfoot_Medial			L_Midfoot_Lateral			L_Hindfoot			L_Midfoot_Superior			L_ToeMedial			L_ToeLateral			Oglobal			Sacral			Xglobal			Yglobal			Zglobal			
		X1	Y1	Z1	X2	Y2	Z2	X3	Y3	Z3	X4	Y4	Z4	X5	Y5	Z5	X6	Y6	Z6	X7	Y7	Z7	X8	Y8	Z8	X9	Y9	Z9	X10	Y10	Z10	X11	Y11	Z11	X12	Y12	Z12	X13	Y13	Z13	X14	Y14	Z14	X15	Y15	Z15	X16	Y16	Z16	X17	Y17	Z17	X18	Y18	Z18	X19	Y19	Z19	X20	Y20	Z20	X21	Y21	Z21	X22	Y22	Z22	X23	Y23	Z23	X24	Y24	Z24	X25	Y25	Z25	X26	Y26	Z26	X27	Y27	Z27	X28	Y28	Z28	X29	Y29	Z29	X30	Y30	Z30	X31	Y31	Z31	X32	Y32	Z32	X33	Y33	Z33	X34	Y34	Z34	X35	Y35	Z35	X36	Y36	Z36	X37	Y37	Z37	X38	Y38	Z38	X39	Y39	Z39	X40	Y40	Z40	X41	Y41	Z41	X42	Y42	Z42	X43	Y43	Z43	X44	Y44	Z44	X45	Y45	Z45	X46	Y46	Z46	X47	Y47	Z47	X48	Y48	Z48	X49	Y49	Z49	X50	Y50	Z50	X51	Y51	Z51	X52	Y52	Z52	X53	Y53	Z53	X54	Y54	Z54	X55	Y55	Z55	X56	Y56	Z56	X57	Y57	Z57	X58	Y58	Z58	X59	Y59	Z59	X60	Y60	Z60	X61	Y61	Z61	X62	Y62	Z62	X63	Y63	Z63	X64	Y64	Z64	X65	Y65	Z65	X66	Y66	Z66	X67	Y67	Z67	X68	Y68	Z68	

185	3.958333	212.579	1343.73	150.909	58.2783	1429.62	179.912	176.824	1379.98	329.462	90.6164	1391.8	-3.17891	229.521	1178.57	154.943	-33.5022	1242.04	183.447	152.23	950.3339999999999	308.095	151.879	951.505	29.1024	-48.6044	995.301	199.913	-49.6996	992.429	121.788	-47.4747	1043.69	163.379	156.865	1070.39	440.004	-0	0	0	-0	0	0	-0	0	0	250.199	804.835	408.051	239.04	820.812	365.158	206.393	810.567	429.236	-20.9335	1071.53	-86.1619	-0	0	0	-0	0	0	-0	0	0	-32.545	802.688	-104.413	-72.7598	827.537	-112.745	-22.6941	816.249	-59.5116	140.307	795.977	4.64168	248.669	602.505	61.4877	255.361	700.418	88.3129	-0	0	0	-0	0	0	305.1	528.345	123.692	255.357	446.818	49.1385	257.329	175.629	44.2342	283.325	304.329	120.424	-0	0	0	-0	0	0	35.8393	774.557	336.124	-10.1839	562.481	297.354	91.60429999999999	669.172	315.267	-0	0	0	-0	0	0	40.9097	443.388	239.011	-131.746	413.408	309.518	-250.844	242.495	302.088	-120.763	301.618	235.809	-0	0	0	-0	0	0	-395.229	168.733	249.162	-141.802	31.4563	258.121	-216.69	31.4299	203.469	-234.676	30.1559	319.345	-330.214	85.55710000000001	303.174	-226.712	134.569	261.893	-177.284	29.2944	213.254	-186.85	30.9441	304.593	186.921	60.6814	101.113	484.511	60.8669	87.70829999999999	408.636	39.9561	140.869	392.105	37.4659	27.6143	284.58	28.0797	40.4588	347.554	122.499	88.37609999999999	448.883	41.056	132.131	445.885	41.4816	37.0247	-0	0	0	-49.152	993.865	160.85	-200	0	0	-0	0	200	-0	200	0	
186	3.966667	221.523	1344.48	149.001	67.1833	1430.13	178.382	186.16	1380.99	327.54	99.4259	1391.82	-4.76974	238.812	1179.4	153.274	-24.4808	1242.54	182.58	161.547	950.096	306.787	161.301	952.9930000000001	27.5511	-39.2042	995.622	198.692	-40.3012	992.898	120.627	-38.2225	1044.09	162.445	164.781	1071.62	438.47	-0	0	0	-0	0	0	-0	0	0	257.077	805.647	407.422	246.584	821.7190000000001	364.354	213.11	810.9109999999999	427.847	-9.41043	1070.76	-87.9088	-0	0	0	-0	0	0	-0	0	0	-18.9768	801.86	-106.331	-59.5506	826.417	-114.082	-9.08629	815.573	-61.1611	149.999	796.981	2.72694	260.36	605.683	62.9142	264.158	703.045	90.267	-0	0	0	-0	0	0	313.814	528.08	124.194	263.827	447.163	49.684	259.966	176.453	44.7057	287.849	304.51	121.273	-0	0	0	-0	0	0	47.528	773.533	334.343	4.9069	561.032	295.843	104.615	668.962	313.65	-0	0	0	-0	0	0	57.8221	441.601	238.347	-116.982	414.764	308.273	-240.117	246.939	301.431	-108.947	302.12	234.626	-0	0	0	-0	0	0	-385.912	180.035	249.728	-140.875	29.6785	258.404	-215.661	32.8441	203.192	-232.893	32.8388	319.19	-324.933	93.69499999999999	303.32	-218.987	136.382	261.447	-176.481	28.7687	213.302	-185.832	30.8314	304.544	186.923	60.7654	101.228	484.768	60.1317	87.91500000000001	408.515	39.4228	141.342	392.175	37.1112	28.0556	284.809	28.0101	40.6462	347.972	122.275	88.8248	449.154	40.3158	132.44	446.153	41.0486	37.1178	-0	0	0	-39.7527	994.26	159.659	-200	0	0	-0	0	200	-0	200	0	
187	3.975	230.344	1345.19	147.353	75.9316	1430.87	176.904	195.546	1382.14	325.876	108.38	1392.17	-6.20248	247.744	1180.26	151.693	-15.3912	1242.98	181.756	170.686	949.909	305.313	170.523	954.3440000000001	26.2308	-30.0457	995.914	197.385	-31.0714	993.438	119.664	-29.1294	1044.51	161.496	172.507	1072.94	437.127	-0	0	0	-0	0	0	-0	0	0	263.449	806.41	406.501	254.375	822.576	363.596	219.538	811.4109999999999	426.264	2.26456	1070.14	-89.5688	-0	0	0	-0	0	0	-0	0	0	-4.87331	800.982	-107.709	-45.7916	825.235	-115.381	5.08335	814.797	-62.7865	158.94	797.373	0.7896840000000001	271.015	607.895	64.06180000000001	272.203	705.167	90.35169999999999	-0	0	0	-0	0	0	322.15	527.794	124.117	271.663	447.286	49.9529	262.132	177.067	45.4296	291.814	304.54	121.979	-0	0	0	-0	0	0	59.5222	772.496	332.43	20.9333	558.954	294.518	118.602	668.574	311.772	-0	0	0	-0	0	0	74.2197	440.029	237.414	-101.613	415.893	307.084	-228.913	251.848	300.651	-95.5223	303.385	234.252	-0	0	0	-0	0	0	-374.479	191.22	249.64	-139.895	28.9544	258.108	-213.038	34.2708	203.597	-229.713	36.1514	319.661	-318.707	102.297	303.537	-210.866	138.488	260.982	-175.632	28.7123	213.431	-184.165	31.0525	304.446	186.948	60.8249	101.352	485.054	59.459	88.087	408.448	38.651	141.523	392.188	36.9752	28.214	284.738	28.0768	40.6678	348.322	122	89.3817	449.3	39.9095	132.584	446.269	40.6659	37.2418	-0	0	0	-30.5585	994.676	158.525	-200	0	0	-0	0	200	-0	200	0	
188	3.983333	239.09	1346.2	145.805	84.69	1431.74	175.518	204.569	1383.18	324.24	117.092	1392.52	-7.49489	256.689	1181.35	150.287	-6.62824	1243.56	180.93	179.601	949.8390000000001	304.23	179.776	956.107	24.7694	-20.9667	996.26	196.187	-21.8708	993.896	118.619	-20.2506	1044.92	160.574	180.419	1074.21	435.819	-0	0	0	-0	0	0	-0	0	0	269.727	807.171	405.856	261.452	823.474	362.506	225.394	811.735	424.795	13.9993	1069.61	-91.2654	-0	0	0	-0	0	0	-0	0	0	9.66479	800.355	-109.172	-31.6054	824.2809999999999	-116.765	19.4644	814.165	-64.2681	167.137	797.299	-1.05939	279.733	608.953	63.5973	279.592	707.6369999999999	91.48909999999999	-0	0	0	-0	0	0	329.643	527.194	123.715	278.877	447.174	50.0605	263.752	177.11	45.8659	295.512	304.323	122.428	-0	0	0	-0	0	0	71.7851	771.432	330.438	36.9469	557.327	293.018	132.559	668.437	309.858	-0	0	0	-0	0	0	91.1099	438.91	235.932	-85.50449999999999	417.632	305.344	-217.656	257.618	299.673	-80.2131	305.114	234.287	-0	0	0	-0	0	0	-362.681	203.773	249.144	-137.94	28.1247	258.254	-211.242	36.9175	203.96	-227.403	40.7433	320.049	-311.918	111.715	303.791	-202.162	141.116	260.507	-174.338	29.1076	213.521	-182.407	32.3683	304.564	186.925	60.8431	101.427	485.206	59.1159	88.0502	408.341	37.9361	141.651	392.144	36.6922	28.327	284.808	28.1168	40.6942	348.599	121.673	89.751	449.436	39.5902	132.587	446.379	40.3529	37.1767	-0	0	0	-21.4188	995.078	157.403	-200	0	0	-0	0	200	-0	200	0	
